<svg width="11" height="11" viewBox="0 0 11 11" fill="none" xmlns="http://www.w3.org/2000/svg">
<path fill-rule="evenodd" clip-rule="evenodd" d="M0.386806 8.14292C0.276487 8.33015 0.152591 8.54741 0.0473638 8.7205C-0.0468227 8.88615 0.00374038 9.09978 0.161077 9.20094L2.36745 10.614C2.4449 10.6638 2.53831 10.6791 2.6267 10.6565C2.7151 10.6339 2.79108 10.5753 2.83758 10.4939C2.92584 10.3402 3.03955 10.1406 3.16344 9.92689C4.03751 8.42553 4.91667 8.60923 6.50186 9.397L8.68957 10.4797C8.77242 10.5208 8.86772 10.5252 8.95373 10.4919C9.03974 10.4586 9.10914 10.3905 9.14612 10.3031L10.1967 7.83028C10.2709 7.65367 10.1954 7.44774 10.027 7.36751C9.56533 7.14142 8.64714 6.69101 7.82059 6.27593C4.84708 4.7728 2.31993 4.86994 0.386806 8.14292Z" fill="black"/>
<path fill-rule="evenodd" clip-rule="evenodd" d="M10.2799 2.53133C10.3902 2.3441 10.5141 2.12685 10.6193 1.95375C10.7135 1.78811 10.6629 1.57448 10.5056 1.47331L8.29922 0.0602636C8.22114 0.00553301 8.12472 -0.0129938 8.03301 0.00910947C7.9413 0.0312128 7.86252 0.0919608 7.81551 0.17684C7.72725 0.330509 7.61354 0.530102 7.48964 0.743826C6.61558 2.24519 5.73642 2.06149 4.15123 1.27372L1.97031 0.19627C1.88745 0.155227 1.79216 0.150844 1.70615 0.184121C1.62014 0.217397 1.55074 0.285497 1.51376 0.372901L0.463187 2.84574C0.388962 3.02235 0.464487 3.22828 0.632908 3.30851C1.09455 3.5346 2.01274 3.98501 2.83928 4.40009C5.81959 5.90145 8.34674 5.80078 10.2799 2.53133Z" fill="black"/>
</svg>
