<svg width="22" height="21" viewBox="0 0 22 21" fill="none" xmlns="http://www.w3.org/2000/svg">
<path fill-rule="evenodd" clip-rule="evenodd" d="M10.6755 0C4.77222 0 0 4.73833 0 10.6003C0 15.2861 3.05773 19.2525 7.2996 20.6563C7.82995 20.7619 8.02421 20.4282 8.02421 20.1476C8.02421 19.9019 8.00673 19.0595 8.00673 18.1818C5.03707 18.8138 4.41866 16.9182 4.41866 16.9182C3.94141 15.6897 3.23429 15.3739 3.23429 15.3739C2.26232 14.7246 3.30509 14.7246 3.30509 14.7246C4.38326 14.7948 4.949 15.8127 4.949 15.8127C5.90327 17.4272 7.44099 16.971 8.05961 16.6901C8.14789 16.0057 8.43087 15.5318 8.73134 15.2686C6.36282 15.0229 3.87083 14.1103 3.87083 10.0386C3.87083 8.88028 4.29476 7.93261 4.96648 7.19559C4.8605 6.93239 4.48924 5.84409 5.07268 4.38748C5.07268 4.38748 5.97407 4.10663 8.00651 5.47557C8.87667 5.24354 9.77405 5.1255 10.6755 5.12451C11.5769 5.12451 12.4958 5.24749 13.3443 5.47557C15.3769 4.10663 16.2783 4.38748 16.2783 4.38748C16.8617 5.84409 16.4903 6.93239 16.3843 7.19559C17.0737 7.93261 17.4802 8.88028 17.4802 10.0386C17.4802 14.1103 14.9882 15.0052 12.602 15.2686C12.9909 15.602 13.3266 16.2337 13.3266 17.2342C13.3266 18.6557 13.3091 19.7965 13.3091 20.1474C13.3091 20.4282 13.5036 20.7619 14.0337 20.6565C18.2756 19.2523 21.3333 15.2861 21.3333 10.6003C21.3508 4.73833 16.5611 0 10.6755 0Z" fill="white"/>
</svg>
