<svg width="32" height="32" viewBox="0 0 32 32" fill="none" xmlns="http://www.w3.org/2000/svg">
<path fill-rule="evenodd" clip-rule="evenodd" d="M16.0089 5.66177C10.1056 5.66177 5.33336 10.4001 5.33336 16.2621C5.33336 20.9478 8.39108 24.9143 12.633 26.3181C13.1633 26.4236 13.3576 26.09 13.3576 25.8094C13.3576 25.5636 13.3401 24.7213 13.3401 23.8436C10.3704 24.4755 9.75202 22.58 9.75202 22.58C9.27477 21.3515 8.56765 21.0357 8.56765 21.0357C7.59568 20.3864 8.63845 20.3864 8.63845 20.3864C9.71662 20.4566 10.2824 21.4744 10.2824 21.4744C11.2366 23.0889 12.7743 22.6328 13.393 22.3519C13.4813 21.6674 13.7642 21.1936 14.0647 20.9304C11.6962 20.6847 9.20419 19.7721 9.20419 15.7004C9.20419 14.5421 9.62812 13.5944 10.2998 12.8574C10.1939 12.5942 9.8226 11.5059 10.406 10.0493C10.406 10.0493 11.3074 9.7684 13.3399 11.1373C14.21 10.9053 15.1074 10.7873 16.0089 10.7863C16.9102 10.7863 17.8291 10.9093 18.6776 11.1373C20.7103 9.7684 21.6117 10.0493 21.6117 10.0493C22.1951 11.5059 21.8236 12.5942 21.7176 12.8574C22.4071 13.5944 22.8135 14.5421 22.8135 15.7004C22.8135 19.7721 20.3215 20.667 17.9353 20.9304C18.3243 21.2638 18.6599 21.8955 18.6599 22.8959C18.6599 24.3174 18.6424 25.4583 18.6424 25.8092C18.6424 26.09 18.8369 26.4236 19.367 26.3183C23.6089 24.914 26.6666 20.9478 26.6666 16.2621C26.6841 10.4001 21.8944 5.66177 16.0089 5.66177Z" fill="white"/>
</svg>
