<svg width="20" height="20" viewBox="0 0 20 20" fill="none" xmlns="http://www.w3.org/2000/svg">
<path d="M19.0903 0H9.49665C9.49665 1.14859 9.95292 2.25013 10.7651 3.06231C11.5773 3.87448 12.6788 4.33076 13.8274 4.33076H15.5947V6.03698C15.5962 8.42663 17.533 10.3634 19.9226 10.365V0.832304C19.9226 0.372635 19.55 0 19.0903 0Z" fill="white"/>
<path d="M14.3435 4.78013H4.74977C4.7513 7.16978 6.6881 9.10659 9.07775 9.10812H10.845V10.8199C10.8481 13.2095 12.7861 15.1451 15.1758 15.1451V5.61244C15.1758 5.15277 14.8031 4.78013 14.3435 4.78013Z" fill="white"/>
<path d="M9.59369 9.55761H0C0 11.9494 1.93895 13.8884 4.33076 13.8884H6.10357V15.5946C6.10509 17.9821 8.03852 19.918 10.426 19.9226V10.3899C10.426 9.93024 10.0534 9.55761 9.59369 9.55761Z" fill="white"/>
</svg>
