<svg width="20" height="20" viewBox="0 0 20 20" fill="none" xmlns="http://www.w3.org/2000/svg">
<path d="M17.0409 17.0401H14.0776V12.3992C14.0776 11.2925 14.0578 9.86788 12.5363 9.86788C10.9929 9.86788 10.7567 11.0736 10.7567 12.3186V17.0398H7.79336V7.49618H10.6382V8.80041H10.678C10.9627 8.31361 11.3741 7.91315 11.8684 7.64167C12.3627 7.3702 12.9214 7.23787 13.4849 7.25879C16.4884 7.25879 17.0422 9.23444 17.0422 11.8046L17.0409 17.0401ZM4.44969 6.19163C4.10957 6.19169 3.77706 6.09089 3.49422 5.90197C3.21139 5.71306 2.99094 5.44451 2.86073 5.13029C2.73051 4.81607 2.69638 4.4703 2.76268 4.13669C2.82897 3.80308 2.99271 3.49662 3.23317 3.25607C3.47363 3.01551 3.78002 2.85167 4.11359 2.78525C4.44716 2.71884 4.79293 2.75283 5.10719 2.88294C5.42144 3.01304 5.69006 3.23342 5.87907 3.51619C6.06808 3.79897 6.16901 4.13145 6.16907 4.47158C6.16911 4.69742 6.12466 4.92106 6.03827 5.12972C5.95189 5.33839 5.82527 5.52799 5.66561 5.68771C5.50595 5.84743 5.31638 5.97414 5.10775 6.0606C4.89913 6.14707 4.67552 6.19159 4.44969 6.19163ZM5.93137 17.0401H2.96491V7.49618H5.93137V17.0401ZM18.5183 0.000128372H1.47583C1.08901 -0.004237 0.716265 0.145152 0.439533 0.415468C0.162802 0.685783 0.00472088 1.05491 0 1.44174V18.5555C0.00455931 18.9425 0.162547 19.3119 0.43927 19.5825C0.715992 19.8531 1.08882 20.0028 1.47583 19.9986H18.5183C18.9061 20.0035 19.28 19.8543 19.5578 19.5837C19.8356 19.3131 19.9946 18.9433 20 18.5555V1.4405C19.9945 1.05291 19.8353 0.683362 19.5575 0.413052C19.2797 0.142743 18.9059 -0.00498351 18.5183 0.000128372Z" fill="white"/>
</svg>
