<svg width="22" height="22" viewBox="0 0 22 22" fill="none" xmlns="http://www.w3.org/2000/svg">
<path d="M4.48209 13.481C4.48209 14.7144 3.47448 15.722 2.24104 15.722C1.0076 15.722 0 14.7144 0 13.481C0 12.2476 1.0076 11.24 2.24104 11.24H4.48209V13.481Z" fill="white"/>
<path d="M5.61129 13.481C5.61129 12.2476 6.61889 11.24 7.85234 11.24C9.08578 11.24 10.0934 12.2476 10.0934 13.481V19.0923C10.0934 20.3257 9.08578 21.3333 7.85234 21.3333C6.61889 21.3333 5.61129 20.3257 5.61129 19.0923V13.481Z" fill="white"/>
<path d="M7.85234 4.48209C6.61889 4.48209 5.61129 3.47448 5.61129 2.24104C5.61129 1.0076 6.61889 0 7.85234 0C9.08578 0 10.0934 1.0076 10.0934 2.24104V4.48209H7.85234Z" fill="white"/>
<path d="M7.85234 5.61129C9.08578 5.61129 10.0934 6.6189 10.0934 7.85234C10.0934 9.08578 9.08578 10.0934 7.85234 10.0934H2.24104C1.0076 10.0934 0 9.08578 0 7.85234C0 6.6189 1.0076 5.61129 2.24104 5.61129H7.85234Z" fill="white"/>
<path d="M16.8512 7.85234C16.8512 6.61889 17.8589 5.61129 19.0923 5.61129C20.3257 5.61129 21.3333 6.61889 21.3333 7.85234C21.3333 9.08578 20.3257 10.0934 19.0923 10.0934H16.8512V7.85234Z" fill="white"/>
<path d="M15.722 7.85234C15.722 9.08578 14.7144 10.0934 13.481 10.0934C12.2476 10.0934 11.24 9.08578 11.24 7.85234V2.24104C11.24 1.0076 12.2476 0 13.481 0C14.7144 0 15.722 1.0076 15.722 2.24104V7.85234Z" fill="white"/>
<path d="M13.481 16.8513C14.7144 16.8513 15.722 17.8589 15.722 19.0923C15.722 20.3257 14.7144 21.3333 13.481 21.3333C12.2476 21.3333 11.24 20.3257 11.24 19.0923V16.8513H13.481Z" fill="white"/>
<path d="M13.481 15.722C12.2476 15.722 11.24 14.7144 11.24 13.481C11.24 12.2476 12.2476 11.24 13.481 11.24H19.0923C20.3257 11.24 21.3333 12.2476 21.3333 13.481C21.3333 14.7144 20.3257 15.722 19.0923 15.722H13.481Z" fill="white"/>
</svg>
